<?xml version="1.0" standalone="no"?>
<!DOCTYPE svg PUBLIC "-//W3C//DTD SVG 20010904//EN"
 "http://www.w3.org/TR/2001/REC-SVG-20010904/DTD/svg10.dtd">
<svg version="1.0" xmlns="http://www.w3.org/2000/svg"
 width="260.000000pt" height="260.000000pt" viewBox="0 0 260.000000 260.000000"
 preserveAspectRatio="xMidYMid meet">
<metadata>
Created by potrace 1.11, written by Peter Selinger 2001-2013
</metadata>
<g transform="translate(0.000000,260.000000) scale(0.100000,-0.100000)"
fill="#000000" stroke="none">
<path d="M1827 2593 c-4 -3 -7 -17 -7 -30 0 -34 -23 -84 -54 -114 -14 -14
-247 -194 -516 -399 -270 -206 -504 -389 -520 -407 -43 -49 -66 -135 -52 -198
5 -28 20 -67 32 -88 18 -31 25 -35 41 -27 11 6 19 21 19 36 0 35 23 85 54 115
14 14 247 194 516 399 270 206 504 389 520 407 38 43 64 132 56 187 -14 83
-61 147 -89 119z"/>
<path d="M1838 1929 c-10 -6 -18 -21 -18 -35 0 -35 -23 -85 -54 -115 -14 -14
-247 -194 -516 -399 -270 -206 -504 -389 -520 -407 -43 -49 -66 -135 -52 -198
5 -28 20 -67 32 -88 18 -31 25 -35 41 -27 11 6 19 21 19 36 0 35 23 85 54 115
14 14 247 194 516 399 270 206 504 389 520 407 61 69 73 184 29 269 -28 52
-31 54 -51 43z"/>
<path d="M1838 1259 c-10 -6 -18 -21 -18 -35 0 -35 -23 -85 -54 -115 -14 -14
-247 -194 -516 -399 -270 -206 -504 -389 -520 -407 -44 -49 -66 -135 -52 -200
14 -67 38 -103 68 -103 19 0 24 5 24 25 0 36 23 86 54 116 14 14 247 194 516
399 270 206 504 389 520 407 61 69 73 184 29 269 -28 52 -31 54 -51 43z"/>
</g>
</svg>
